<svg id="Layer_1" data-name="Layer 1" xmlns="http://www.w3.org/2000/svg" viewBox="0 0 12.6 12" width="12.6" height="12"><defs><style>.cls-1{fill:none}.cls-2{fill:#464646}.cls-3{clip-path:url(#clip-path)}.cls-4{fill:#aeaeae}</style><clipPath id="clip-path"><path class="cls-1" d="M6.3-.54h6.66v13.46H6.3z"/></clipPath></defs><title>ple</title><path class="cls-2" d="M2.88 11.88c-.41.26-.65.09-.53-.39l1-3.92L.23 5c-.37-.31-.28-.59.2-.63l4-.27L6 .34c.18-.45.48-.45.66 0l1.5 3.75 4 .27c.49 0 .58.31.2.63l-3.1 2.59 1 3.92c.12.47-.12.65-.53.39L6.3 9.73z"/><path class="cls-3 cls-4" d="M2.88 11.88c-.41.26-.65.09-.53-.39l1-3.92L.23 5c-.37-.31-.28-.59.2-.63l4-.27L6 .34c.18-.45.48-.45.66 0l1.47 3.75 4 .27c.49 0 .58.31.2.63L9.27 7.58l1 3.92c.12.47-.12.65-.53.39L6.3 9.73z"/></svg>